<svg id="svg548" xmlns="http://www.w3.org/2000/svg" viewBox="0 0 512 512"><defs><style>.cls-1{fill:#244aa5;}.cls-2{fill:#d0a650;}.cls-3{fill:#fff;}</style></defs><title>xk</title><rect class="cls-1" width="512" height="512"/><path class="cls-2" d="M185.68,243.68a9.88,9.88,0,0,1,1.7-1c.46-.11,2.07-.62,2.07-.62a5.06,5.06,0,0,1,1.58-.53,3.38,3.38,0,0,1,2.07,1.15,8.7,8.7,0,0,0,2.16,1.46s1.25.42,1.49,0a1.61,1.61,0,0,1,1.37-.73c.58,0,.67-.53.67-1a2.47,2.47,0,0,1,.67-1.46,3.66,3.66,0,0,1,1.37-.84s1.25-.53,1.37-1.26,1.37-1.26,2.07-1.37,0-.42,1.82-.22,2.07-.42,2.16-1,0-1.06,1.16-1,1.7.11,1.7-.53,1-1-.79-1.46-1.7-.11-1.82-1,0-.73-1.25-.84-.58-.73-.67-1.37a4.64,4.64,0,0,0-.67-1.37c-.24-.42-.91-.42-.91-1s-.12-1-.79-1-.91,0-.91-.62.12-1.15.79-1.15A.9.9,0,0,0,205,224a14.94,14.94,0,0,1-.12-2l.91-1.06a34,34,0,0,0,3-2.63.9.9,0,0,1,1.58.11,5.61,5.61,0,0,0,1,1.46c.33.42,1.37.11,1.58-.31s.33-2,.94-2.8a5.34,5.34,0,0,0,1.19-1.9c.15-.67.46-1.23,1.19-1.23s1.19-1,1.19-1.51a1.21,1.21,0,0,1,1.19-1.23c.88-.14,1.34-.67,1.64.14s.61.81,1.19,1.09,1.49.67,1.92.28.67-1.09,1.34-.67,1.09,0,1.25-.81.3-1.9.3-1.9.15-.56,1.19-.56.3-.67.88-1.09.61-.81,1.34-.56,1.92-.34,1.34-1-1.92-1.76-1.19-2.6,1-2.18.3-2.32-1.79.14-1.92-.67-.46-1.37.46-1.51,2.37-.14,2.83-.56,1.92-.67,1.92-1.9.46-1.37.61-2a3.64,3.64,0,0,0-.46-2.77,12.48,12.48,0,0,1-1.64-2,2.61,2.61,0,0,0-1.64-1.37c-.88-.28-1.64-.42-1.64-1.09s.61.14.61-1.65-1.19-2-1.19-2l-1.79-1.09a31.41,31.41,0,0,0-4-.84c-.85,0-1.82-.9-.85-1.46a1.81,1.81,0,0,0,.85-2.35,2.41,2.41,0,0,0-1.95-1.68c-1.34-.34-1.7-.67-1.09-1.46s.73-1.34,1.46-.78a3,3,0,0,0,2.92.34c1-.45,1.34-.78,1.82-.34s1.09.9,1.82.22a2.69,2.69,0,0,1,2.68-.45,4,4,0,0,0,2.55,0c.49-.22,1.46-1,1.46-1.46a2.47,2.47,0,0,1,1.22-1.57c.61-.34,1.34-1.46,1.95-1.46s.85-.67.85-1.12a7,7,0,0,1,.61-1.68,1.63,1.63,0,0,1,2.19-.11,5.26,5.26,0,0,0,1.95.9,4.69,4.69,0,0,0,1.82,0,2.44,2.44,0,0,1,2.31.11,4.33,4.33,0,0,0,2.07.56,7.36,7.36,0,0,0,.24-1.34c0-.45.24-1.23-.24-1.57s-1.09-.78-.12-1.46a2.23,2.23,0,0,1,1.95-.56c1,0,1.58.11,2.31.11s1.95.67,1.95,1.34a1.73,1.73,0,0,0,1.09,1.46c.61.34,1.34.67,1.09,1.23s-.24,1,.49.9,1,.34,1,.9.24.9,1,1.12,1.09.67,1.09,1.23a3,3,0,0,0,.12,1.46,8.79,8.79,0,0,0,1,1.46s1.34,1.57-.36.78-2.07-1.12-2.68-1a2.11,2.11,0,0,0-1,.45,7.16,7.16,0,0,1-1.46.22c-.61,0-1.22,1.23-.24,1.46s1.34.45,1.34,1.23-.36.56-.85,1.12-.85.22-1.7.22-1.09.67-1.09,1.34.36.56.73,1.12a1,1,0,0,0,1.58.11c.61-.56,1.09-.9,1.46.11s.85,1,1.58,1a2.52,2.52,0,0,0,1.58-.34c.61-.34,1.34,0,1.46.9s.73,1,1.34,1.34,1,.56,1.09,1.12.49.78,1.09.45,1.58-.56,1.95-.11,1,1.34,1,1.34l.12,1.12,2.31.78a3.1,3.1,0,0,1,.24,1c0,.45.36.67,1,.56a8,8,0,0,1,1.7,0s.85-.34.85-1,.36-.9,1-.9,1.95.45,2.31-.22a1.92,1.92,0,0,1,2.31-.56l3,1.23s-.24.11.49,1.23A2.64,2.64,0,0,0,286,191a5.58,5.58,0,0,0,.36,1.46,1.54,1.54,0,0,0,1.95.22,4.31,4.31,0,0,1,2.19-1c.73,0,1.22,0,1.22-.45s-.73-.78-.73-1.46.73-.67.85-1.34.85,0,1.34.34,1.09.9,1.09,1.34a4.11,4.11,0,0,0,1.58,2.24c.61.22,2.19.34,2.68-.22s1.7-.78,1.58.56-.36,1.46.49,1.9a1.59,1.59,0,0,1,.24,2.46c-.73.45-1,.56-1,1.34s-.24,1.68.36,2.13,1,.78,1,1.23a17.06,17.06,0,0,0,.73,2.46,12.2,12.2,0,0,1,.24,2.46c-.12.45-.36,1.23.73,1.12s1.34-.11,1.34.78.36,1.23-.24,1.57-1,1.46-.36,1.68a1.79,1.79,0,0,1,1.22,1c.12.45,1.09,1.23,1.7.78s.73-.67,1.22-.78.85-.45.36-1-.61-1.12-.12-1.46.73-1.46.73-1.46a.94.94,0,0,1,1.58,0c.85,1,1,.67,1.58.67s.85.56.85,1.12,1.22.45,1.22,1.34.24,3,.24,3,0,1.23.73,1.68.61.56.24,1.12a3.58,3.58,0,0,0-.24,1.9c0,.45.24.67-.36,1.12a1.21,1.21,0,0,0-.49,1.68c.36.67.24,1.12,1.22,1.9s.85,1.12.85,1.68,1,1.34,1,1.9.73,1.23,1.34,1.34a2.18,2.18,0,0,1,1.34,1.68c0,.56.12,2,.12,2s-.12.34.61.34,1.22.78,1.46-.11,1-1,1.46-1.23,1.46-.67,1.95-.34a2.71,2.71,0,0,0,1.58.34c.49,0,2.8.11,2.8.11s.61-.11,1,.78,1.46,1.9.85,2.35-.61,1.34.12,1.34,1.46,0,1.46.56.12,1,.73.67,1-.45,1.22,0,.73.45,1.34.78.85.11,1.22-.34a5.54,5.54,0,0,1,1.82-.9,8.18,8.18,0,0,1,2.68-.22,16.94,16.94,0,0,1,1.7.67,3.13,3.13,0,0,1,.24,1.79c-.24.67-.49.56-.24,1.57s-.24,1.12-.73,1-1-.11-1,.78-.49,1.12-.49,1.9,0,.67-.49,1-.61.9.12,1,.49.9.49,1.34-.12,1.46-.12,1.46.12.56-.73.56-1.58-.11-1.7.45-1.09,1.46-.24,2,.61.9.12,1.12a.92.92,0,0,0,.12,1.68c1,.34.85.67.24,1.12s-1.82.78-1.82,1.46-.24.67-1,.78-1.09,1-.24,2.13,1.09.9,1.7.9.61-.9.61-.9,2.07.11,2.68.11a3.76,3.76,0,0,0,1.95-.34c.49-.34,1.82-.9,1.82.11s.24.9.85,1.34.73.11,1.22.78.61.11,1-.67,1.09-1.57,1.7-.67.61.67,1.34.67,1,.34,1,.9.73.56,1.58.45,1,.45,1.34,1,.49.45,1,.45a1.52,1.52,0,0,0,1.34-.45c.36-.45.85-1,1.34-.34a.94.94,0,0,0,1.7-.22c.24-.78,1.34-1.46,1.95-.56a2,2,0,0,0,1.7,1c.61.11,1.46.11,1.82.67s1.58,1.46.73,2.13-1.82,1.57-1.09,1.79a3.24,3.24,0,0,1,1.7,1c.49.56,2.07.78,2.8.9a2.36,2.36,0,0,0,2.19-.45c.85-.67,1.7-.67,1.58.22a3.94,3.94,0,0,0,.36,1.9,8.84,8.84,0,0,1,.61,2c0,.56-.12.67,1,1.34s1,1.12,1.82.45,1.09-1,1.09-1.57v-1.79a6.08,6.08,0,0,0,1.7-.56c.49-.34,2.43-1.34,2.92-.9a1.37,1.37,0,0,0,1.58.11,5.79,5.79,0,0,1,1.95-.22,3.11,3.11,0,0,0,2.31-.67c1-.78,1-.56,1.58,0a1.18,1.18,0,0,1,.24,1.68,1,1,0,0,0,.85,1.46c.85,0,1.09.45,1.09,1a8.06,8.06,0,0,0,.24,1.79c.12.45.12.67,1.46,1s1.09,1.12,1.34,1.68.24,1-.49,1a1,1,0,0,0-1.09.9c-.12.56-1.22.78-1.22.78l-1.09-.22a1.58,1.58,0,0,0-1.09.45c-.36.45-1.09,1.34-.61,2.13s.49,1.23,0,1.57-.73,2-1.22,1.68-1.09.11-1.58.34-.36,1.79.61,2.35a2.64,2.64,0,0,1,1.22,1.34l1.09,1.68a2.89,2.89,0,0,0-.61.9c-.24.56-1,1.68-.24,1.9s.36,1.46-.36,1.46-1.58-.34-1.7.56-.49.67-1.22.56-2.55-.56-3,.34-.61,1.23-1.46,1.12-.49,1.34-.24,1.9a5.71,5.71,0,0,0,1.09,1.34,2.18,2.18,0,0,1,.73,1.68c0,1.12-.49,1-1,.22s-1.46-.67-1.58.22-.24,2.24-1.09,2.24a1.73,1.73,0,0,0-1.58.67,4,4,0,0,0-1,1.68.88.88,0,0,1-.73,1c-.61.11-.73,1.34-.73,1.34s-1.46.22-1.58.78.12,1.46-1.09,1.57a3.09,3.09,0,0,0-2.31,1.46,1.12,1.12,0,0,0,0,1.57c.49.56.85,2.35,1.46,2.69s1.09.45,1,1.34-.85,1.57.12,1.57,1.58.22,1.22,1-.36.9-1.09,1.23-1.09.34-1.09,1.23.24.9-.36,1.23-.61.78-.61,1.46-.24.45-1,1.23a2.14,2.14,0,0,1-2.31.56c-.61-.22-.73-.22-.85-.9s-1.22-.67-1.82-.56a4.53,4.53,0,0,0-1.46.78s-1.09.67-.61,1.23.24,1.46-.61,1.34-2.8.9-3.4-.11-2.31-1.68-2.55-.34.73,1.23.61,2.58-.36,1.34-.85,1.79A2,2,0,0,0,356,339c-.12.56-.24,1.79.61,2.24a2.87,2.87,0,0,1,1.22,2.35c0,.67,0,1.34.85,1.34s1.58-.11,1.7-.9a1,1,0,0,1,1.95.34c.12,1.57.12,2.35.73,3a16.71,16.71,0,0,0,1.58,1.9c.49.34,1.31,3.19,1.31,3.19-1.19.25-1.49,1.79-2.25,2.1-.43.17-.88,0-1.28.31s-.3.64-.73.84c-.88.39-.73-1-1.79-.48s-1.06,1.57-2.46,1.09c-.73-.25-1.19-3.11-1.4-3.78a14,14,0,0,0-1.12-1.93c-.82-1.23-2.46,0-3-.36-.82-.56-.46-1.51-1.7-1.62-2.52-.17-.73,1.54-1.79,1.93-2,.73-2-1.9-3.56-.7-.58.45.91.73.55,1.51s-1.79,1.62-1.7,2.38c.12,1,1.25,1.34,1.58,2.21.91,2.3-.61,3.89-2.89,2.1-1.28-1-1.52-2.88-3.5-2.74-.46,0-.61.5-1.06.56s-.82-.42-1.31-.28c-.73.25-.09.76-.24,1.18a12.42,12.42,0,0,0-1.12,1c-.55.73-.36,1.37-1.16,2s-1.19.2-1.92,1-.82,2-1.79,2.8c-.49.39-.82-1.18-1.43-.14a3,3,0,0,0-.24.42.73.73,0,0,0,0,.78c1.28,2.46-1.4,3.39-2.22,5.12-.36.73.64,1.4.24,2s-1.46,1.57-1.55,1.82a3,3,0,0,1-.43,1c-.21.22-.94.11-1,.45s.76.7,1,1-.12.73,0,.81c1.37,1.37.55,1,1.25,2.16.09.17.52-.14.67.31s-.33.39-.15.87c0,.14,1,1.4,1,1.43.06.42-1.85,1.29-2.28,1.29-1.16,0,1-2.38-.88-2.38-.82,0-.88,1.88-1.09,2.07a4.24,4.24,0,0,1-1,0c-1.22,0-2,1.51-2.49,1.65-.3.11-1-.17-1.49-.08s-1.06.56-1.52.56c-.3,0-.46-.2-.7-.34a13.58,13.58,0,0,0-2.16-.64c-.33-.11-1,.42-1.19.28-.4-.25.27-1-.64-1.46a8.19,8.19,0,0,1-.76-1.76,8.32,8.32,0,0,0,.49-3.33c-.18-1.15-2-2.13-2.46-3.05-.36-.7-.7-2.55-1.4-3a6.46,6.46,0,0,1-1.85-2.24c-.12-.22.24-.62,0-1s-.88-.59-1-1.15,0-1.9-.52-2.21a30.5,30.5,0,0,0-5.2-.87,1.59,1.59,0,0,1-1.22-.39c-.15-.14-.4-.73-.52-.73a8.3,8.3,0,0,0-1.16.2c-.27,0-.73-.17-1,0-1.19.81-1.49,1.85-2.61,2.72s-2.43.84-3.59,1.85c-.73.64-1.22,2.18-1.95,2.91-.3.31-.79,0-.91.14-.61.76-1.46,1.2-2.07,1.9-.12.14-.09.42-.24.53l-1.31.34c-.33.06-1,0-1.25.06-.61.2-.58.84-2.64,1.26a1.91,1.91,0,0,0-.55.25c-.24.17-.43.42-.67.59s-.61-.08-.88-.06c-.52.08-.82.53-1.31.59-1.09.14-2.86-.5-3.71-.17-.52.2-1.95,1.79-2.46,2-.33.11-.58,0-.94-.17-.18.22-.61,2-.76,2.35,0,0-2.34,2-2.52,2.21s-.43.7-.79,1.06a1.53,1.53,0,0,1-1,.48,11.24,11.24,0,0,1-1.67-.45,20.35,20.35,0,0,0-4.32-.08c-.82.17-.58,2.52-2.61,2.74-1.19.14-2.28.36-3.5.48a2.68,2.68,0,0,0-1.58-.31c-.27.08-1.16,1-1.16,1.26v.5c0,.08.24.39.21.42a16.6,16.6,0,0,0-1.82,2,1.47,1.47,0,0,1-.36.48c-.27.2-1.67.73-1.79,1-.33.84,1,1.62.85,2-.36,1.09-1.82,2.13-2.28,3.14-.18.42.49,1.82.46,2.3a30,30,0,0,0-.55,4.28,9.26,9.26,0,0,0,.27,1.71c.15.25.49.39.7.62a30.83,30.83,0,0,1,1.88,3.7c.3,2.32-3.07,1.51-1.12,3.84a10.77,10.77,0,0,0,.88,1.06c.43.42,2.92,2.24,2.95,2.44s-2,.67-2.37,1c-1,1-1.79,2.72-2.74,3.7-.58.62-1.09-.06-1.85,1.37-.27.53,0,1.74-.33,2.07-.49.5-.88-.17-1.37.06-.21.08-.33.7-.55.87-.55.48-5.41,3.05-5.87,2.83-.24-.11-.52-.92-.55-1.18a2.64,2.64,0,0,0-.61-1.09,3.16,3.16,0,0,0-4.38,0c-.3.34-.33.84-.73,1.18-.67.56-1.43,1.06-2.07,1.62-.12.11-.49.53-.64.5-.49-.06-1.67-1.4-2-1.76-.55-.64-2.13-2.18-2.28-2.91,0-2.49-1.95-5.1-2.77-7.53l1.22,0c1.37-.92,1-3.19,3.44-2.3.3-.42.27-.87.85-1.18.21-.11.61-.22.73-.42.82-1.26,1.79-6.08.94-7.31s-1.55-1.06-2.16-2.91c-.18-.5.15-1.09,0-1.65s-.94-3.11-1.06-3.3-.67-.5-.7-.64a30.52,30.52,0,0,1-.12-3.33c-.82-2.24-3.59-3.67-3.74-3.92-.33-.53-.67-1.23-1-1.82a7.22,7.22,0,0,1-.67-1.74c-.09-.31-.55-.56-.58-.9-.06-.59,1.61-1.82,1.55-2.86,0-.34-1.06-1.34-.85-1.9s1.28-1.9,1.25-2.55c-.06-.87-1.67-2.74-1.88-3.67-.09-.45.64-.81.46-1.12s-1.92-1.93-2.19-2.38.64-.78,0-1.4-.09-.36-.24-.84-.79-1-1-1.57-1.67-5.74-1.64-6c-.24-.36-.67-.67-.88-1s-.3-1.06-.49-1.34c0,0-1.64-.5-1.95-1s-.3-1.68-.73-2.32c-.21-.31-.55-.25-.79-.48s-.18-.48-.33-.67c-.49-.67-1.46-.06-2.13-2.52a17.48,17.48,0,0,1-2.46-1.9c-.15-.14-.24-.31-.43-.39a7.4,7.4,0,0,1-2-.78,12.17,12.17,0,0,1-2.1-.17c-.18-.11-.36-.81-.49-.84-.85-.17-2.25-.08-3-.7-.58-.5-.7-2.94-1.73-2.6a.73.73,0,0,0-.43-.08c-.67-.87-3-1-3.92-1.54-.27-.17-1.16,0-1.16-.28a3.43,3.43,0,0,0,.18-1.34c-.52-.5-.85-1.09-1.22-1.46-.88-.2-.55-.28-1.09-.62-1.52-.11-1.67.14-2.64,1-.24.22-.73.28-1,.45-.52.28-.67,1.2-1.4.78a3.34,3.34,0,0,1-.58-.53c-.43-.36-.67-.17-.88-.84-1.25-.67-4.68,1.65-5.5,0-.58-.31-1,.08-1.49-.42-.24-.25.67-3.05-1.82-4.2.58-.45,1.19-.76,1.73-1.18.15-.31,0-.78,0-1.09a13.83,13.83,0,0,0,.21-1.74c-.09-.34-.46-.62-.58-1s0-.9-.18-1.32a2.3,2.3,0,0,0-.79-.39,11.69,11.69,0,0,1-1.85-1.51c-.12-.14-.21-.39-.36-.5-.46-.34-1.95-.78-1.88-1.48,0-.22.33-.25.43-.48s0-.64.24-.9c.7-1,2.25-.53,2-2.3-.12-.78-.67-1.46-.82-2.3-.27-.2-.3-.53-.55-.73-1.52-.14-1.31-1.71-1.85-2.07-1.61-1.09-2.86-.42-1.06-2.58.24-.7-1.55-1.82-1.92-2.21-.64-.62-.33-1.9-.58-2.58-.12-.34-1.19-.92-1.52-1.4-.09-.14-.36-.87-.52-1l0-.22c.33-.25.15-.76.06-1.09s-.67-.14-.82-.28a15.91,15.91,0,0,0-5.14-2.66c-.52-.2-.36-.62-.79-.81a27.12,27.12,0,0,0-3.13-1.26c-.3-.08-.52-1.23-.73-1.6a7.54,7.54,0,0,0-.91-1c.06-1.06-.61-1.2-1.43-1.76.06-.14-.09-.48-.09-.64s.55-2,.64-2.24.67-.76.58-1.2a14.84,14.84,0,0,0-.46-2.41c-.82-2.18-1.79-1.9-1.28-4.76.12-.59-.09-.92.36-1.46-.06,0,.21-.31.24-.36.27-.25,1-.67,1.19-.87.46-.62.73-2,1.31-2.46.43-.34,1.64-1,1.85-1.26s.46-.92.3-1.2a2.91,2.91,0,0,0-1.28-.2,8.11,8.11,0,0,0-1.12-.5c-.12-.14-.33-.31-.33-.5l-.18-.17a8,8,0,0,1-1.46-.5,13.62,13.62,0,0,1-1.82-.56c-1-.56-2.07-2.1-3-2.32-1.28-.28-2.1.11-3.31.17-.79.06-.79-.42-1.43-.62-.85-.25-.21.45-2.16-.17-.24-.2.12-.87.15-1.12-.3-.08-.67.08-1,0-1.61-.39-1-1.85-1.43-2.8-.18-.22-.85-.17-1.16-.2a.18.18,0,0,1-.09-.22l.15-.11c.27-.42-.7-1.48-.67-1.62.06-.34,2-.64,2.31-.67.09-.25-.18-.48-.21-.73a4.66,4.66,0,0,1,.49-1.79l-.06-.17c-.55-.31-.73-.76-1.22-1.12,0-.25.36-.42.43-.67.94-2.6,2.4-.53,3.68-2.94a8,8,0,0,0,.61-1.2l.24-.06c.24.06.58.25.82.17a1.6,1.6,0,0,1,.88-.42l.46.11c2.37-.5,1.82-1.37,3.19-2.35a11.61,11.61,0,0,1,1.92-.53,18.08,18.08,0,0,0,2.22,1.4c.7.28,3.1.78,3.5,1s.61,1,1.06,1.2c1.37.73.58-.5,1.88-.25s2.43,1.37,3.68,1.9a2.35,2.35,0,0,0,1-.08,18.1,18.1,0,0,1,2.74-.39c.24.08.61.31.85.36s.55-.59.76-.56c.91.14.94.5,2.16.39.06,0,.64-3.42,1.22-3.58.33-.08,1.25.81,1.52.87.46.11,0-.7-.06-.76a19.37,19.37,0,0,1-.73-2.58c0-.11.61.17.88.08a4.87,4.87,0,0,0,2.07-.92c.06-.06,1.09-1.54,1.12-1.6.06-.25-.27-.84-.12-1s.73-.39,1-.67.46-1.06,1-1.34c2.16-.2,2.92-1.88,4.86-2.1a5.42,5.42,0,0,1,.64-.06l.4.64a4.9,4.9,0,0,0,1.64.9c.18,0,.27-.34.46-.39a2.54,2.54,0,0,0,1.61-1c0-.06-.24-.39-.12-.62a12.54,12.54,0,0,1,1.67-1.29,4.24,4.24,0,0,1,1.46.06c.27.11.3.53.61.59s.94-.11,1.19-.06.4-.5.73-.53Z"/><g id="h"><path id="star" class="cls-3" d="M289.47,84.66l16.93,52.1-44.32-32.2h54.78l-44.32,32.2Z"/><path id="star-2" data-name="star" class="cls-3" d="M355.39,96.28l16.93,52.1L328,116.19h54.78l-44.32,32.2Z"/><path id="star-3" data-name="star" class="cls-3" d="M418.29,119.18l16.93,52.1-44.32-32.2h54.78l-44.32,32.2Z"/></g><g id="h-2" data-name="h"><path id="star-4" data-name="star" class="cls-3" d="M222.53,84.66l-16.93,52.1,44.32-32.2H195.14l44.32,32.2Z"/><path id="star-5" data-name="star" class="cls-3" d="M156.61,96.28l-16.93,52.1L184,116.19H129.22l44.32,32.2Z"/><path id="star-6" data-name="star" class="cls-3" d="M93.71,119.18l-16.93,52.1,44.32-32.2H66.32l44.32,32.2Z"/></g></svg>